<mxfile host="app.diagrams.net" modified="2022-03-08T06:07:27.893Z" agent="5.0 (Macintosh; Intel Mac OS X 10_15_7) AppleWebKit/537.36 (KHTML, like Gecko) Chrome/99.0.4844.51 Safari/537.36" etag="1tOPJd6Wcsglgv4cUZyD" version="16.5.3" type="github">
  <diagram id="gGWph9ZIedJ9n7lPlR7C" name="Page-1">
    <mxGraphModel dx="786" dy="587" grid="0" gridSize="10" guides="1" tooltips="1" connect="1" arrows="1" fold="1" page="1" pageScale="1" pageWidth="827" pageHeight="1169" math="0" shadow="0">
      <root>
        <mxCell id="0" />
        <mxCell id="1" parent="0" />
        <mxCell id="KguvxQ1M2tpxnF9cV27D-42" value="" style="shape=flexArrow;endArrow=classic;startArrow=classic;html=1;rounded=0;entryX=1;entryY=1;entryDx=0;entryDy=0;exitX=0.25;exitY=0;exitDx=0;exitDy=0;" edge="1" parent="1" source="KguvxQ1M2tpxnF9cV27D-37" target="KguvxQ1M2tpxnF9cV27D-39">
          <mxGeometry width="100" height="100" relative="1" as="geometry">
            <mxPoint x="406.5748502994013" y="702" as="sourcePoint" />
            <mxPoint x="475" y="585" as="targetPoint" />
          </mxGeometry>
        </mxCell>
        <mxCell id="KguvxQ1M2tpxnF9cV27D-43" value="Comm&lt;br&gt;(contains DB info)" style="edgeLabel;html=1;align=center;verticalAlign=middle;resizable=0;points=[];" vertex="1" connectable="0" parent="KguvxQ1M2tpxnF9cV27D-42">
          <mxGeometry x="-0.0908" relative="1" as="geometry">
            <mxPoint x="-1" y="-5" as="offset" />
          </mxGeometry>
        </mxCell>
        <mxCell id="KguvxQ1M2tpxnF9cV27D-34" value="&lt;br&gt;&lt;br&gt;" style="whiteSpace=wrap;html=1;aspect=fixed;rounded=0;shadow=0;glass=0;dashed=1;dashPattern=1 1;sketch=0;strokeColor=#666666;opacity=50;fillColor=#f5f5f5;fontColor=#333333;" vertex="1" parent="1">
          <mxGeometry x="74" y="698" width="267" height="267" as="geometry" />
        </mxCell>
        <mxCell id="KguvxQ1M2tpxnF9cV27D-37" value="&lt;br&gt;&lt;br&gt;" style="whiteSpace=wrap;html=1;aspect=fixed;rounded=0;shadow=0;glass=0;dashed=1;dashPattern=1 1;sketch=0;strokeColor=#666666;opacity=50;fillColor=#f5f5f5;fontColor=#333333;" vertex="1" parent="1">
          <mxGeometry x="504" y="698" width="267" height="267" as="geometry" />
        </mxCell>
        <mxCell id="KguvxQ1M2tpxnF9cV27D-8" value="" style="endArrow=classic;html=1;rounded=0;exitX=0.5;exitY=1;exitDx=0;exitDy=0;entryX=0.5;entryY=0;entryDx=0;entryDy=0;" edge="1" parent="1" source="KguvxQ1M2tpxnF9cV27D-1" target="KguvxQ1M2tpxnF9cV27D-3">
          <mxGeometry width="50" height="50" relative="1" as="geometry">
            <mxPoint x="367.5" y="330" as="sourcePoint" />
            <mxPoint x="274.5" y="404" as="targetPoint" />
          </mxGeometry>
        </mxCell>
        <mxCell id="KguvxQ1M2tpxnF9cV27D-18" value="" style="edgeStyle=orthogonalEdgeStyle;rounded=0;orthogonalLoop=1;jettySize=auto;html=1;" edge="1" parent="1" source="KguvxQ1M2tpxnF9cV27D-12" target="KguvxQ1M2tpxnF9cV27D-17">
          <mxGeometry relative="1" as="geometry" />
        </mxCell>
        <mxCell id="KguvxQ1M2tpxnF9cV27D-12" value="Updater(主)&lt;br&gt;&lt;br&gt;" style="rounded=1;whiteSpace=wrap;html=1;fillColor=#ffe6cc;strokeColor=#d79b00;" vertex="1" parent="1">
          <mxGeometry x="294.34" y="212" width="106.33" height="58" as="geometry" />
        </mxCell>
        <mxCell id="KguvxQ1M2tpxnF9cV27D-1" value="DB" style="rounded=1;whiteSpace=wrap;html=1;fillColor=#d5e8d4;strokeColor=#82b366;" vertex="1" parent="1">
          <mxGeometry x="322.75" y="243" width="49.5" height="27" as="geometry" />
        </mxCell>
        <mxCell id="KguvxQ1M2tpxnF9cV27D-2" value="App Node" style="ellipse;whiteSpace=wrap;html=1;fillColor=#dae8fc;strokeColor=#6c8ebf;" vertex="1" parent="1">
          <mxGeometry x="313" y="384" width="69" height="46" as="geometry" />
        </mxCell>
        <mxCell id="KguvxQ1M2tpxnF9cV27D-3" value="App Node" style="ellipse;whiteSpace=wrap;html=1;fillColor=#dae8fc;strokeColor=#6c8ebf;" vertex="1" parent="1">
          <mxGeometry x="406" y="384" width="69" height="46" as="geometry" />
        </mxCell>
        <mxCell id="KguvxQ1M2tpxnF9cV27D-4" value="App Node" style="ellipse;whiteSpace=wrap;html=1;fillColor=#dae8fc;strokeColor=#6c8ebf;" vertex="1" parent="1">
          <mxGeometry x="220" y="384" width="69" height="46" as="geometry" />
        </mxCell>
        <mxCell id="KguvxQ1M2tpxnF9cV27D-6" value="" style="endArrow=classic;html=1;rounded=0;exitX=0.5;exitY=1;exitDx=0;exitDy=0;entryX=0.5;entryY=0;entryDx=0;entryDy=0;" edge="1" parent="1" source="KguvxQ1M2tpxnF9cV27D-1" target="KguvxQ1M2tpxnF9cV27D-4">
          <mxGeometry width="50" height="50" relative="1" as="geometry">
            <mxPoint x="287" y="379" as="sourcePoint" />
            <mxPoint x="337" y="329" as="targetPoint" />
          </mxGeometry>
        </mxCell>
        <mxCell id="KguvxQ1M2tpxnF9cV27D-7" value="" style="endArrow=classic;html=1;rounded=0;exitX=0.5;exitY=1;exitDx=0;exitDy=0;entryX=0.5;entryY=0;entryDx=0;entryDy=0;" edge="1" parent="1" source="KguvxQ1M2tpxnF9cV27D-1" target="KguvxQ1M2tpxnF9cV27D-2">
          <mxGeometry width="50" height="50" relative="1" as="geometry">
            <mxPoint x="357.5" y="320" as="sourcePoint" />
            <mxPoint x="264.5" y="394" as="targetPoint" />
          </mxGeometry>
        </mxCell>
        <mxCell id="KguvxQ1M2tpxnF9cV27D-9" value="Multicast" style="edgeLabel;html=1;align=center;verticalAlign=middle;resizable=0;points=[];" vertex="1" connectable="0" parent="KguvxQ1M2tpxnF9cV27D-7">
          <mxGeometry y="1" relative="1" as="geometry">
            <mxPoint x="-1" y="-42" as="offset" />
          </mxGeometry>
        </mxCell>
        <mxCell id="KguvxQ1M2tpxnF9cV27D-17" value="Updater(备)&lt;br&gt;" style="rounded=1;whiteSpace=wrap;html=1;fillColor=#ffe6cc;strokeColor=#d79b00;" vertex="1" parent="1">
          <mxGeometry x="454" y="212" width="106.33" height="58" as="geometry" />
        </mxCell>
        <mxCell id="KguvxQ1M2tpxnF9cV27D-19" value="" style="swimlane;startSize=0;dashed=1;" vertex="1" parent="1">
          <mxGeometry x="267" y="199" width="315" height="80" as="geometry" />
        </mxCell>
        <mxCell id="KguvxQ1M2tpxnF9cV27D-20" value="App Node" style="ellipse;whiteSpace=wrap;html=1;fillColor=#dae8fc;strokeColor=#6c8ebf;" vertex="1" parent="1">
          <mxGeometry x="499" y="386" width="69" height="46" as="geometry" />
        </mxCell>
        <mxCell id="KguvxQ1M2tpxnF9cV27D-21" value="" style="endArrow=classic;html=1;rounded=0;exitX=0.5;exitY=1;exitDx=0;exitDy=0;entryX=0.5;entryY=0;entryDx=0;entryDy=0;" edge="1" parent="1" source="KguvxQ1M2tpxnF9cV27D-1" target="KguvxQ1M2tpxnF9cV27D-20">
          <mxGeometry width="50" height="50" relative="1" as="geometry">
            <mxPoint x="357.5" y="280" as="sourcePoint" />
            <mxPoint x="450.5" y="394" as="targetPoint" />
          </mxGeometry>
        </mxCell>
        <mxCell id="KguvxQ1M2tpxnF9cV27D-22" value="..." style="text;html=1;align=center;verticalAlign=middle;resizable=0;points=[];autosize=1;strokeColor=none;fillColor=none;glass=1;" vertex="1" parent="1">
          <mxGeometry x="582" y="398" width="20" height="18" as="geometry" />
        </mxCell>
        <mxCell id="KguvxQ1M2tpxnF9cV27D-28" value="DB" style="rounded=0;whiteSpace=wrap;html=1;shadow=0;glass=0;strokeColor=#6c8ebf;fillColor=#dae8fc;" vertex="1" parent="1">
          <mxGeometry x="211" y="727" width="120" height="168" as="geometry" />
        </mxCell>
        <mxCell id="KguvxQ1M2tpxnF9cV27D-29" value="new generated DB" style="rounded=0;whiteSpace=wrap;html=1;shadow=0;glass=0;strokeColor=#d6b656;fillColor=#fff2cc;" vertex="1" parent="1">
          <mxGeometry x="211" y="707" width="120" height="24" as="geometry" />
        </mxCell>
        <mxCell id="KguvxQ1M2tpxnF9cV27D-30" value="DB" style="rounded=0;whiteSpace=wrap;html=1;shadow=0;glass=0;strokeColor=#6c8ebf;fillColor=#dae8fc;" vertex="1" parent="1">
          <mxGeometry x="513" y="731" width="120" height="168" as="geometry" />
        </mxCell>
        <mxCell id="KguvxQ1M2tpxnF9cV27D-31" value="new generated DB" style="rounded=0;whiteSpace=wrap;html=1;shadow=0;glass=0;strokeColor=#d6b656;fillColor=#fff2cc;dashed=1;dashPattern=1 1;gradientColor=none;sketch=0;opacity=50;" vertex="1" parent="1">
          <mxGeometry x="513" y="707" width="120" height="24" as="geometry" />
        </mxCell>
        <mxCell id="KguvxQ1M2tpxnF9cV27D-32" value="" style="endArrow=classic;html=1;rounded=0;exitX=1;exitY=0.5;exitDx=0;exitDy=0;entryX=0;entryY=0.5;entryDx=0;entryDy=0;" edge="1" parent="1" source="KguvxQ1M2tpxnF9cV27D-29" target="KguvxQ1M2tpxnF9cV27D-31">
          <mxGeometry width="50" height="50" relative="1" as="geometry">
            <mxPoint x="485" y="715" as="sourcePoint" />
            <mxPoint x="535" y="665" as="targetPoint" />
          </mxGeometry>
        </mxCell>
        <mxCell id="KguvxQ1M2tpxnF9cV27D-33" value="Multicast" style="edgeLabel;html=1;align=center;verticalAlign=middle;resizable=0;points=[];" vertex="1" connectable="0" parent="KguvxQ1M2tpxnF9cV27D-32">
          <mxGeometry x="-0.0769" y="2" relative="1" as="geometry">
            <mxPoint y="1" as="offset" />
          </mxGeometry>
        </mxCell>
        <mxCell id="KguvxQ1M2tpxnF9cV27D-36" value="Updater" style="text;html=1;align=center;verticalAlign=middle;resizable=0;points=[];autosize=1;strokeColor=none;fillColor=none;" vertex="1" parent="1">
          <mxGeometry x="173" y="940" width="53" height="18" as="geometry" />
        </mxCell>
        <mxCell id="KguvxQ1M2tpxnF9cV27D-38" value="App Node" style="text;html=1;align=center;verticalAlign=middle;resizable=0;points=[];autosize=1;strokeColor=none;fillColor=none;" vertex="1" parent="1">
          <mxGeometry x="605.5" y="940" width="64" height="18" as="geometry" />
        </mxCell>
        <mxCell id="KguvxQ1M2tpxnF9cV27D-39" value="Master" style="rounded=1;whiteSpace=wrap;html=1;shadow=0;glass=0;sketch=0;strokeColor=#b85450;opacity=50;fillColor=#f8cecc;" vertex="1" parent="1">
          <mxGeometry x="354" y="521" width="120" height="60" as="geometry" />
        </mxCell>
        <mxCell id="KguvxQ1M2tpxnF9cV27D-40" value="" style="shape=flexArrow;endArrow=classic;startArrow=classic;html=1;rounded=0;entryX=0;entryY=1;entryDx=0;entryDy=0;" edge="1" parent="1" source="KguvxQ1M2tpxnF9cV27D-34" target="KguvxQ1M2tpxnF9cV27D-39">
          <mxGeometry width="100" height="100" relative="1" as="geometry">
            <mxPoint x="215" y="677" as="sourcePoint" />
            <mxPoint x="315" y="577" as="targetPoint" />
          </mxGeometry>
        </mxCell>
        <mxCell id="KguvxQ1M2tpxnF9cV27D-41" value="Comm&lt;br&gt;(contains DB info)" style="edgeLabel;html=1;align=center;verticalAlign=middle;resizable=0;points=[];" vertex="1" connectable="0" parent="KguvxQ1M2tpxnF9cV27D-40">
          <mxGeometry x="-0.0908" relative="1" as="geometry">
            <mxPoint x="6" y="-7" as="offset" />
          </mxGeometry>
        </mxCell>
      </root>
    </mxGraphModel>
  </diagram>
</mxfile>
